<svg xmlns="http://www.w3.org/2000/svg" viewBox="0 0 15.24 16.7"><defs><style>.cls-1{fill:#fff;}</style></defs><g id="Capa_2" data-name="Capa 2"><g id="Capa_1-2" data-name="Capa 1"><path class="cls-1" d="M15.11,6.83a1.79,1.79,0,0,0-.37-.54L8.76.46a1.64,1.64,0,0,0-2.28,0l-6,5.83a1.76,1.76,0,0,0-.36.54A1.73,1.73,0,0,0,0,7.46v7.6a1.63,1.63,0,0,0,.48,1.16h0a1.63,1.63,0,0,0,1.15.48h12a1.68,1.68,0,0,0,1.16-.48h0a1.68,1.68,0,0,0,.48-1.16V7.46A1.73,1.73,0,0,0,15.11,6.83Zm-.65,8.23a.89.89,0,0,1-.25.61h0a.89.89,0,0,1-.61.25h-12a.86.86,0,0,1-.6-.25H1a.89.89,0,0,1-.25-.61V7.46a.75.75,0,0,1,.07-.33A.73.73,0,0,1,1,6.85L7,1a.86.86,0,0,1,.6-.24A.84.84,0,0,1,8.21,1l6,5.83a.87.87,0,0,1,.19.28.93.93,0,0,1,.07.33Z"/><path class="cls-1" d="M10.52,5.92h-.3S6.64,5.93,5,8.12s-.72,5.63-.72,5.64l.08.29h.3s3.58,0,5.24-2.2.72-5.63.72-5.64ZM5.6,8.59A5.65,5.65,0,0,1,9.39,6.77l-4.54,6A5.72,5.72,0,0,1,5.6,8.59Zm3.67,2.79a5.74,5.74,0,0,1-3.8,1.82l4.54-6A5.77,5.77,0,0,1,9.27,11.38Z"/></g></g></svg>