<svg xmlns="http://www.w3.org/2000/svg" viewBox="0 0 18.43 18.97"><defs><style>.cls-1{fill:#fff;}.cls-2{fill:#d4db08;}</style></defs><g id="Capa_2" data-name="Capa 2"><g id="Capa_1-2" data-name="Capa 1"><path class="cls-1" d="M5,11.57H5a.28.28,0,0,1,.39,0,3.55,3.55,0,0,0,2.49.94c1.13,0,1.91-.64,1.91-1.5v0c0-.79-.42-1.25-2.13-1.6s-2.54-1-2.54-2.12v0a2.18,2.18,0,0,1,2.42-2A3.75,3.75,0,0,1,9.89,6a.28.28,0,0,1,0,.4h0a.27.27,0,0,1-.38,0,3.18,3.18,0,0,0-2-.68c-1.11,0-1.84.63-1.84,1.42v0c0,.8.41,1.28,2.19,1.64s2.48,1,2.48,2.08v0c0,1.22-1,2.05-2.5,2.05A4.2,4.2,0,0,1,5,12a.29.29,0,0,1,0-.4"/><path class="cls-1" d="M5.2,11.57a.23.23,0,0,0-.12.06h0a.2.2,0,0,0,0,.13.21.21,0,0,0,.07.12h0a4.42,4.42,0,0,0,1.28.75,4.32,4.32,0,0,0,1.47.25,2.73,2.73,0,0,0,1.74-.56,1.78,1.78,0,0,0,.66-1.4v0A1.51,1.51,0,0,0,9.7,9.67a4.08,4.08,0,0,0-1.85-.74,4.29,4.29,0,0,1-1.8-.68,1.23,1.23,0,0,1-.47-1.06v0a1.39,1.39,0,0,1,.57-1.1,2.19,2.19,0,0,1,1.37-.42,3.6,3.6,0,0,1,1.09.16,3.68,3.68,0,0,1,1,.54.18.18,0,0,0,.13,0,.19.19,0,0,0,.11-.07h0a.15.15,0,0,0,0-.13.17.17,0,0,0-.06-.11h0a3.77,3.77,0,0,0-1-.54,4,4,0,0,0-1.26-.18,2.64,2.64,0,0,0-1.66.54,1.7,1.7,0,0,0-.66,1.34v0a1.56,1.56,0,0,0,.55,1.28,4.37,4.37,0,0,0,1.91.75,4,4,0,0,1,1.74.65,1.21,1.21,0,0,1,.46,1v0a1.46,1.46,0,0,1-.57,1.16,2.32,2.32,0,0,1-1.43.44,3.77,3.77,0,0,1-1.38-.24,4.16,4.16,0,0,1-1.18-.73.17.17,0,0,0-.12,0m-.27-.06a.38.38,0,0,1,.25-.13.34.34,0,0,1,.27.09,4,4,0,0,0,1.12.69,3.6,3.6,0,0,0,1.31.22A2.11,2.11,0,0,0,9.19,12a1.22,1.22,0,0,0,.5-1v0a1,1,0,0,0-.39-.89,3.88,3.88,0,0,0-1.66-.61,4.56,4.56,0,0,1-2-.79A1.75,1.75,0,0,1,5,7.24v0a1.94,1.94,0,0,1,.73-1.49,2.84,2.84,0,0,1,1.79-.58,4.44,4.44,0,0,1,1.32.18,3.86,3.86,0,0,1,1.08.57h0a.4.4,0,0,1,.14.24.37.37,0,0,1-.07.27l0,0a.35.35,0,0,1-.24.14.38.38,0,0,1-.27-.07A3,3,0,0,0,8.55,6a3.21,3.21,0,0,0-1-.15,2,2,0,0,0-1.26.38,1.16,1.16,0,0,0-.48.94v0a1.07,1.07,0,0,0,.39.91,4.18,4.18,0,0,0,1.72.64,4.27,4.27,0,0,1,1.93.78,1.69,1.69,0,0,1,.62,1.39v0a2,2,0,0,1-.73,1.55,2.9,2.9,0,0,1-1.86.6,4.26,4.26,0,0,1-1.54-.26A4.42,4.42,0,0,1,5,12H5a.38.38,0,0,1-.13-.25.36.36,0,0,1,.08-.27Z"/><path class="cls-1" d="M7.91,13.92a.39.39,0,0,1-.39.39.38.38,0,0,1-.39-.39v-1a.38.38,0,0,1,.39-.39.39.39,0,0,1,.39.39Z"/><path class="cls-1" d="M7.91,5.37a.39.39,0,0,1-.39.39.38.38,0,0,1-.39-.39v-1A.39.39,0,0,1,7.52,4a.4.4,0,0,1,.39.39Z"/><path class="cls-1" d="M1.63,15.92h12a.85.85,0,0,0,.86-.86V7.46a.93.93,0,0,0-.07-.33.87.87,0,0,0-.19-.28L8.21,1A.84.84,0,0,0,7.62.78.86.86,0,0,0,7,1L1,6.85a.73.73,0,0,0-.19.28.75.75,0,0,0-.07.33v7.6a.89.89,0,0,0,.25.61.86.86,0,0,0,.6.25m12,.78h-12a1.65,1.65,0,0,1-1.15-.48A1.63,1.63,0,0,1,0,15.06V7.46a1.55,1.55,0,0,1,.13-.63,1.76,1.76,0,0,1,.36-.54l6-5.83a1.64,1.64,0,0,1,2.28,0l6,5.83a1.79,1.79,0,0,1,.37.54,1.73,1.73,0,0,1,.13.63v7.6A1.64,1.64,0,0,1,13.6,16.7Z"/><path class="cls-1" d="M11.75,15.63A3.34,3.34,0,1,1,15.09,19a3.35,3.35,0,0,1-3.34-3.34"/><path class="cls-2" d="M14,16.58a.39.39,0,0,1-.58-.52L14.8,14.5a.39.39,0,0,1,.55,0l0,0,1.39,1.55a.38.38,0,0,1,0,.55.39.39,0,0,1-.55,0l-1.1-1.23Z"/></g></g></svg>