<svg xmlns="http://www.w3.org/2000/svg" viewBox="0 0 15.24 16.7"><defs><style>.cls-1{fill:#fff;}</style></defs><g id="Capa_2" data-name="Capa 2"><g id="Capa_1-2" data-name="Capa 1"><path class="cls-1" d="M1.63,15.92h12a.89.89,0,0,0,.61-.25h0a.89.89,0,0,0,.25-.61V7.46a.93.93,0,0,0-.07-.33.87.87,0,0,0-.19-.28L8.21,1A.84.84,0,0,0,7.62.78.86.86,0,0,0,7,1L1,6.85a.73.73,0,0,0-.19.28.75.75,0,0,0-.07.33v7.6a.89.89,0,0,0,.25.61.86.86,0,0,0,.6.25m12,.78h-12A1.64,1.64,0,0,1,0,15.06V7.46a1.73,1.73,0,0,1,.13-.63,1.76,1.76,0,0,1,.36-.54l6-5.83a1.64,1.64,0,0,1,2.28,0l6,5.83a1.79,1.79,0,0,1,.37.54,1.73,1.73,0,0,1,.13.63v7.6a1.68,1.68,0,0,1-.48,1.16h0A1.68,1.68,0,0,1,13.6,16.7Z"/><path class="cls-1" d="M5.7,14,9.78,9.38a.39.39,0,0,0-.29-.65H8.35A.38.38,0,0,1,8,8.15L9.61,5.37a.39.39,0,0,0-.34-.59H7.34A.39.39,0,0,0,7,5L4.44,9.81a.39.39,0,0,0,.35.57H5.87a.4.4,0,0,1,.37.53l-1,2.77A.3.3,0,0,0,5.7,14"/></g></g></svg>