<svg xmlns="http://www.w3.org/2000/svg" viewBox="0 0 13.38 18.67"><defs><style>.cls-1{fill:#fff;}</style></defs><g id="Capa_2" data-name="Capa 2"><g id="Capa_1-2" data-name="Capa 1"><path class="cls-1" d="M9.6,4.9V4.73H13a.4.4,0,0,0,.28-.67L9.6.39h0A.38.38,0,0,0,9.21,0h-5a.38.38,0,0,0-.37.3L.12,4.06A.4.4,0,0,0,0,4.34a.39.39,0,0,0,.39.39H3.86v.09L.12,8.56A.42.42,0,0,0,0,8.84a.38.38,0,0,0,.39.39H3.76L.63,18.15a.4.4,0,0,0,.24.5.39.39,0,0,0,.5-.24L2.21,16l4.47-2.68,4.57,2.74h0l.82,2.34a.4.4,0,0,0,.5.24.4.4,0,0,0,.24-.5L9.7,9.23H13a.38.38,0,0,0,.28-.11.39.39,0,0,0,0-.55Zm-5-3.13,1.62,2.8L4.64,7.5ZM5,.78H8.34l-1.64,3ZM6.71,5.36,8.5,8.45H5ZM4.59,9.23H8.88l.53,1.54L6.68,12.41,4,10.82ZM7.15,4.56l1.67-3V4.25s0,.06,0,.09,0,.06,0,.09V5a.54.54,0,0,0,0,.18V7.46ZM12.05,4H9.6V1.5ZM1.33,4,3.86,1.42V4Zm2.53,2V8.45H1.33ZM2.62,14.85l1.15-3.28,2.15,1.3Zm4.82-2,2.24-1.35,1.19,3.41ZM9.6,8.45V6l2.45,2.44Z"/></g></g></svg>