<svg xmlns="http://www.w3.org/2000/svg" viewBox="0 0 18.42 15.24"><defs><style>.cls-1{fill:#fff;}.cls-2{fill:#d4db08;}</style></defs><g id="Capa_2" data-name="Capa 2"><g id="Capa_1-2" data-name="Capa 1"><path class="cls-1" d="M5.3,10a.23.23,0,0,0-.12.06h0a.2.2,0,0,0,0,.13.34.34,0,0,0,.06.12h0a4.42,4.42,0,0,0,1.28.75A4.32,4.32,0,0,0,8,11.3a2.73,2.73,0,0,0,1.74-.56,1.79,1.79,0,0,0,.66-1.4v0A1.5,1.5,0,0,0,9.8,8.08,4.08,4.08,0,0,0,8,7.34a4.41,4.41,0,0,1-1.81-.68A1.25,1.25,0,0,1,5.68,5.6v0a1.41,1.41,0,0,1,.56-1.1,2.24,2.24,0,0,1,1.38-.42,3.6,3.6,0,0,1,1.09.16,3.68,3.68,0,0,1,1,.54.17.17,0,0,0,.12,0A.19.19,0,0,0,10,4.73h0a.16.16,0,0,0,0-.13.2.2,0,0,0-.06-.12h0a3.77,3.77,0,0,0-1-.54,4,4,0,0,0-1.26-.18A2.63,2.63,0,0,0,6,4.29a1.72,1.72,0,0,0-.65,1.34v0a1.56,1.56,0,0,0,.55,1.28,4.37,4.37,0,0,0,1.91.75,4,4,0,0,1,1.74.65,1.21,1.21,0,0,1,.46,1v0a1.46,1.46,0,0,1-.57,1.16A2.32,2.32,0,0,1,8,11a3.77,3.77,0,0,1-1.38-.24A4.16,4.16,0,0,1,5.42,10a.17.17,0,0,0-.12,0M5,9.92a.38.38,0,0,1,.25-.13.39.39,0,0,1,.27.08,3.78,3.78,0,0,0,1.12.7A3.6,3.6,0,0,0,8,10.79a2.11,2.11,0,0,0,1.31-.4,1.22,1.22,0,0,0,.5-1v0a1,1,0,0,0-.39-.89,3.75,3.75,0,0,0-1.66-.61,4.56,4.56,0,0,1-2-.79,1.75,1.75,0,0,1-.63-1.43v0a1.91,1.91,0,0,1,.73-1.49,2.84,2.84,0,0,1,1.79-.58A4.44,4.44,0,0,1,9,3.74,4.16,4.16,0,0,1,10,4.31h0a.45.45,0,0,1,.14.24.37.37,0,0,1-.07.27l0,0A.35.35,0,0,1,9.87,5a.38.38,0,0,1-.27-.07,3,3,0,0,0-.95-.51,3.21,3.21,0,0,0-1-.15,2.09,2.09,0,0,0-1.26.37,1.19,1.19,0,0,0-.48,1v0a1.07,1.07,0,0,0,.39.91A4.18,4.18,0,0,0,8,7.15a4.27,4.27,0,0,1,1.93.78,1.69,1.69,0,0,1,.62,1.39v0a2,2,0,0,1-.73,1.55,2.9,2.9,0,0,1-1.86.6,4.48,4.48,0,0,1-1.54-.26,4.42,4.42,0,0,1-1.33-.78h0a.34.34,0,0,1-.13-.25A.39.39,0,0,1,5,9.92Z"/><path class="cls-1" d="M12.46,12.46a6.86,6.86,0,1,0-4.84,2,6.82,6.82,0,0,0,4.84-2m2.78-4.84A7.61,7.61,0,1,1,13,2.23,7.59,7.59,0,0,1,15.24,7.62Z"/><path class="cls-1" d="M8,12.33a.38.38,0,0,1-.39.39.39.39,0,0,1-.39-.39v-1a.39.39,0,0,1,.39-.39.38.38,0,0,1,.39.39Z"/><path class="cls-1" d="M8,3.78a.38.38,0,0,1-.39.39.39.39,0,0,1-.39-.39v-1a.4.4,0,0,1,.39-.39A.39.39,0,0,1,8,2.77Z"/><path class="cls-1" d="M18.42,11.85a3.34,3.34,0,1,1-3.34-3.34,3.33,3.33,0,0,1,3.34,3.34"/><path class="cls-2" d="M16.18,10.9a.38.38,0,0,1,.55,0,.39.39,0,0,1,0,.55L15.37,13a.39.39,0,0,1-.55,0l0,0L13.4,11.42a.39.39,0,0,1,0-.55.38.38,0,0,1,.55,0l1.1,1.23Z"/><path class="cls-1" d="M5.3,10a.23.23,0,0,0-.12.06h0a.2.2,0,0,0,0,.13.34.34,0,0,0,.06.12h0a4.42,4.42,0,0,0,1.28.75A4.32,4.32,0,0,0,8,11.3a2.73,2.73,0,0,0,1.74-.56,1.79,1.79,0,0,0,.66-1.4v0A1.5,1.5,0,0,0,9.8,8.08,4.08,4.08,0,0,0,8,7.34a4.41,4.41,0,0,1-1.81-.68A1.25,1.25,0,0,1,5.68,5.6v0a1.41,1.41,0,0,1,.56-1.1,2.24,2.24,0,0,1,1.38-.42,3.6,3.6,0,0,1,1.09.16,3.68,3.68,0,0,1,1,.54.17.17,0,0,0,.12,0A.19.19,0,0,0,10,4.73h0a.16.16,0,0,0,0-.13.2.2,0,0,0-.06-.12h0a3.77,3.77,0,0,0-1-.54,4,4,0,0,0-1.26-.18A2.63,2.63,0,0,0,6,4.29a1.72,1.72,0,0,0-.65,1.34v0a1.56,1.56,0,0,0,.55,1.28,4.37,4.37,0,0,0,1.91.75,4,4,0,0,1,1.74.65,1.21,1.21,0,0,1,.46,1v0a1.46,1.46,0,0,1-.57,1.16A2.32,2.32,0,0,1,8,11a3.77,3.77,0,0,1-1.38-.24A4.16,4.16,0,0,1,5.42,10a.17.17,0,0,0-.12,0"/></g></g></svg>