<svg xmlns="http://www.w3.org/2000/svg" viewBox="0 0 22.54 14.7"><defs><style>.cls-1{fill:#fff;}.cls-2{fill:#d4db08;}</style></defs><g id="Capa_2" data-name="Capa 2"><g id="Capa_1-2" data-name="Capa 1"><path class="cls-1" d="M15.61,3.14l.43,0a4.58,4.58,0,1,1,0,9.15,4.06,4.06,0,0,1-1-.11,4.4,4.4,0,0,1-.73-.22,6.88,6.88,0,0,1-2.08,1.34A6.91,6.91,0,0,1,6,12.8a6.9,6.9,0,0,1-2.42-2.47l-.2,0a3.88,3.88,0,0,1-.48,0A2.93,2.93,0,0,1,.86,9.55h0a2.94,2.94,0,0,1,2.07-5h.19A6.88,6.88,0,0,1,5.54,1.33,6.87,6.87,0,0,1,13,.9a6.87,6.87,0,0,1,2.4,2.27l.21,0m.43.65h-.37l-.37.06-.23,0L15,3.7a6.24,6.24,0,0,0-9-1.84A6.18,6.18,0,0,0,3.66,5l-.09.27-.28,0-.18,0H2.93a2.28,2.28,0,0,0-1.6,3.88h0a2.26,2.26,0,0,0,1.6.66,2.13,2.13,0,0,0,.37,0,2.22,2.22,0,0,0,.37-.09l.27-.09.13.25a6.33,6.33,0,0,0,2.3,2.46,6.22,6.22,0,0,0,3.23.9A6.32,6.32,0,0,0,12,12.67a6.2,6.2,0,0,0,2-1.36l.17-.16.21.09a4.2,4.2,0,0,0,.8.28,4,4,0,0,0,.85.09,3.91,3.91,0,1,0,0-7.82Z"/><path class="cls-1" d="M5,6.9H5a2.11,2.11,0,0,0,.57,1.48A2,2,0,0,0,7,9a1.93,1.93,0,0,0,.9-.2,2.42,2.42,0,0,0,.62-.44L8.4,8.27a2.1,2.1,0,0,1-.61.44A1.81,1.81,0,0,1,7,8.89a1.79,1.79,0,0,1-1.33-.58A2,2,0,0,1,5.09,6.9h0a2,2,0,0,1,.53-1.4A1.8,1.8,0,0,1,7,4.92a1.87,1.87,0,0,1,.85.18,2.5,2.5,0,0,1,.57.39l.08-.08A2.36,2.36,0,0,0,7.86,5h0A2,2,0,0,0,7,4.83a2,2,0,0,0-1.42.59A2.11,2.11,0,0,0,5,6.9m-.2,0h0A2.29,2.29,0,0,1,5.4,5.29,2.12,2.12,0,0,1,7,4.63a2.32,2.32,0,0,1,1,.2h0a3,3,0,0,1,.72.5.1.1,0,0,1,0,.14l-.22.23a.1.1,0,0,1-.14,0h0a2.31,2.31,0,0,0-.58-.42A1.68,1.68,0,0,0,7,5.11a1.61,1.61,0,0,0-1.19.51,1.85,1.85,0,0,0-.48,1.27h0a1.86,1.86,0,0,0,.49,1.28,1.71,1.71,0,0,0,1.94.35,2.35,2.35,0,0,0,.63-.46.09.09,0,0,1,.13,0l.21.2a.1.1,0,0,1,0,.14h0A2.64,2.64,0,0,1,7.93,9a2.28,2.28,0,0,1-1,.21,2.15,2.15,0,0,1-1.56-.65A2.31,2.31,0,0,1,4.76,6.91Z"/><path class="cls-1" d="M4.86,6.91h0A2.11,2.11,0,0,1,7,4.73a2.23,2.23,0,0,1,1.63.67l-.22.23A2,2,0,0,0,7,5,1.8,1.8,0,0,0,5.18,6.89h0A1.82,1.82,0,0,0,7,8.79,1.91,1.91,0,0,0,8.4,8.14l.21.2A2.19,2.19,0,0,1,7,9.07,2.09,2.09,0,0,1,4.86,6.91"/><path class="cls-1" d="M9.05,6.9h0a2.12,2.12,0,0,0,.59,1.48A1.93,1.93,0,0,0,11.06,9a2,2,0,0,0,1.43-.59,2.12,2.12,0,0,0,.59-1.49h0a2.11,2.11,0,0,0-.58-1.48,2,2,0,0,0-1.43-.58,2,2,0,0,0-1.43.59A2.14,2.14,0,0,0,9.05,6.9m-.19,0h0A2.33,2.33,0,0,1,9.5,5.28a2.23,2.23,0,0,1,3.14,0,2.35,2.35,0,0,1,.64,1.62h0a2.32,2.32,0,0,1-.65,1.62,2.22,2.22,0,0,1-3.13,0A2.31,2.31,0,0,1,8.86,6.91ZM13,6.9h0a2,2,0,0,1-.54,1.41,1.86,1.86,0,0,1-2.68,0A2.09,2.09,0,0,1,9.18,6.9h0a2,2,0,0,1,.54-1.41,1.88,1.88,0,0,1,2.69,0A2,2,0,0,1,13,6.9Zm-.19,0h0a1.86,1.86,0,0,0-.5-1.28,1.64,1.64,0,0,0-1.2-.51,1.58,1.58,0,0,0-1.19.51,1.81,1.81,0,0,0-.49,1.27h0a1.83,1.83,0,0,0,.49,1.28,1.68,1.68,0,0,0,2.4,0A1.85,1.85,0,0,0,12.76,6.91Z"/><path class="cls-1" d="M9,6.91H9a2.11,2.11,0,1,1,4.22,0h0a2.11,2.11,0,0,1-2.12,2.17A2.09,2.09,0,0,1,9,6.91m3.9,0h0A1.82,1.82,0,0,0,11.06,5,1.8,1.8,0,0,0,9.28,6.89h0a1.79,1.79,0,1,0,3.58,0Z"/><path class="cls-1" d="M14.58,8.33l-.35.31h.85a.08.08,0,0,1,.08.08V9a.07.07,0,0,1-.08.07H13.54A.08.08,0,0,1,13.46,9V8.79a.05.05,0,0,1,0,0L14.28,8a1.87,1.87,0,0,0,.32-.35.4.4,0,0,0,.08-.24.29.29,0,0,0-.08-.21.38.38,0,0,0-.23-.08.49.49,0,0,0-.25.06,1,1,0,0,0-.23.25l0,.06a.09.09,0,0,1-.11,0l-.23-.15a.09.09,0,0,1,0-.11l0-.06a1,1,0,0,1,.32-.34.84.84,0,0,1,.53-.16.78.78,0,0,1,.54.2.67.67,0,0,1,.22.51.86.86,0,0,1-.14.46,2.77,2.77,0,0,1-.42.45M14,8.66l.48-.44a2.35,2.35,0,0,0,.39-.42A.66.66,0,0,0,15,7.42a.53.53,0,0,0-.17-.4.65.65,0,0,0-.44-.17.75.75,0,0,0-.45.14,1.14,1.14,0,0,0-.28.3l.12.08A1.1,1.1,0,0,1,14,7.08.6.6,0,0,1,14.37,7a.46.46,0,0,1,.33.13.41.41,0,0,1,.13.31.52.52,0,0,1-.11.32,2.12,2.12,0,0,1-.34.38l-.77.69v.12H15V8.79H14A.07.07,0,0,1,14,8.72.06.06,0,0,1,14,8.66Z"/><path class="cls-1" d="M22.54,11.36A3.35,3.35,0,1,1,19.2,8a3.34,3.34,0,0,1,3.34,3.34"/><path class="cls-2" d="M20.3,10.41a.38.38,0,0,1,.55,0,.39.39,0,0,1,0,.55l-1.39,1.55a.38.38,0,0,1-.55,0l0,0-1.38-1.55a.38.38,0,0,1,0-.55.37.37,0,0,1,.54,0l1.11,1.23Z"/><path class="cls-1" d="M14,8.72l.49-.45c.37-.33.53-.54.53-.85a.64.64,0,0,0-.68-.64.89.89,0,0,0-.79.47l0,.06.23.16.05-.06a.62.62,0,0,1,.54-.35.37.37,0,0,1,.39.37c0,.19-.11.35-.43.65l-.79.71V9h1.54V8.72Z"/></g></g></svg>