<svg xmlns="http://www.w3.org/2000/svg" viewBox="0 0 14.36 17.96"><defs><style>.cls-1{fill:#fff;}</style></defs><g id="Capa_2" data-name="Capa 2"><g id="Capa_1-2" data-name="Capa 1"><path class="cls-1" d="M3.06,3.61a2.35,2.35,0,0,0-.69,1.65,2.37,2.37,0,0,0,.69,1.66,2.34,2.34,0,0,0,4-1.66A2.34,2.34,0,0,0,4.71,2.93a2.33,2.33,0,0,0-1.63.66ZM1.59,5.26a3.07,3.07,0,0,1,.92-2.2l0,0a3.12,3.12,0,0,1,5.3,2.22A3.11,3.11,0,0,1,4.71,8.38,3.12,3.12,0,0,1,1.59,5.26Z"/><path class="cls-1" d="M3.87,6.09a.39.39,0,0,1-.55,0,.38.38,0,0,1,0-.55L4.42,4.3a.39.39,0,0,1,.55,0l0,0L6.14,5.57a.39.39,0,1,1-.58.52l-.85-1Z"/><path class="cls-1" d="M11.26,16.86l2-2h0a1.19,1.19,0,0,0,.28-.42,1.34,1.34,0,0,0,.1-.49V2A1.3,1.3,0,0,0,12.36.72H2A1.3,1.3,0,0,0,.72,2V16A1.3,1.3,0,0,0,2,17.24h8.35a1.34,1.34,0,0,0,.49-.1,1.29,1.29,0,0,0,.42-.28m2.51-1.49-2,2a2.2,2.2,0,0,1-.65.44,2.07,2.07,0,0,1-.77.15H2a2,2,0,0,1-1.41-.59A2,2,0,0,1,0,16V2A2,2,0,0,1,.59.59,2,2,0,0,1,2,0H12.36a2,2,0,0,1,1.41.59A2,2,0,0,1,14.36,2V14a2.07,2.07,0,0,1-.15.77h0a2,2,0,0,1-.44.65Z"/><path class="cls-1" d="M13.84,14H10.73a.31.31,0,0,0-.31.31v3.11a.3.3,0,0,0,.52.21l3.11-3.11a.3.3,0,0,0-.21-.52"/><path class="cls-1" d="M2.27,10.58a.36.36,0,0,1,0-.72H12a.36.36,0,0,1,0,.72Z"/><path class="cls-1" d="M2.27,12.1a.36.36,0,1,1,0-.72H12a.36.36,0,0,1,0,.72Z"/><path class="cls-1" d="M2.27,13.63a.36.36,0,0,1,0-.72h5a.36.36,0,0,1,0,.72Z"/><path class="cls-1" d="M2.27,15.16a.37.37,0,0,1-.36-.37.36.36,0,0,1,.36-.36h5a.36.36,0,0,1,.36.36.37.37,0,0,1-.36.37Z"/><path class="cls-1" d="M11.4,5.22a.33.33,0,0,1,.49.43L10.2,7.59a.34.34,0,0,1-.45,0L8.92,7a.33.33,0,0,1,.4-.52l.59.46Z"/><path class="cls-1" d="M11.4,3a.33.33,0,0,1,.49.43L10.2,5.34a.34.34,0,0,1-.45,0l-.83-.64a.33.33,0,0,1,.4-.52l.59.46Z"/></g></g></svg>