<svg xmlns="http://www.w3.org/2000/svg" viewBox="0 0 15.24 16.7"><defs><style>.cls-1{fill:#fff;}</style></defs><g id="Capa_2" data-name="Capa 2"><g id="Capa_1-2" data-name="Capa 1"><path class="cls-1" d="M1.63,15.92h12a.89.89,0,0,0,.61-.25h0a.89.89,0,0,0,.25-.61V7.46a.93.93,0,0,0-.07-.33.87.87,0,0,0-.19-.28L8.21,1A.84.84,0,0,0,7.62.78.86.86,0,0,0,7,1L1,6.85a.73.73,0,0,0-.19.28.75.75,0,0,0-.07.33v7.6a.89.89,0,0,0,.25.61.86.86,0,0,0,.6.25m12,.78h-12A1.64,1.64,0,0,1,0,15.06V7.46a1.55,1.55,0,0,1,.13-.63,1.76,1.76,0,0,1,.36-.54l6-5.83a1.64,1.64,0,0,1,2.28,0l6,5.83a1.79,1.79,0,0,1,.37.54,1.73,1.73,0,0,1,.13.63v7.6a1.68,1.68,0,0,1-.48,1.16h0A1.68,1.68,0,0,1,13.6,16.7Z"/><path class="cls-1" d="M6,6.65a.38.38,0,0,1-.39-.39A.39.39,0,0,1,6,5.87h.58a.4.4,0,0,1,.39.39.39.39,0,0,1-.39.39Z"/><path class="cls-1" d="M7.82,4.15a.38.38,0,0,1,.39-.39.39.39,0,0,1,.39.39v.58a.4.4,0,0,1-.39.39.39.39,0,0,1-.39-.39Z"/><path class="cls-1" d="M9.8,6.65a.38.38,0,0,1-.39-.39.39.39,0,0,1,.39-.39h.58a.4.4,0,0,1,.39.39.39.39,0,0,1-.39.39Z"/><path class="cls-1" d="M9.66,5.45a.39.39,0,0,1-.5-.6l.45-.37a.39.39,0,0,1,.55,0,.39.39,0,0,1-.06.55Z"/><path class="cls-1" d="M7.32,4.85a.38.38,0,0,1,.06.54.4.4,0,0,1-.55.06l-.45-.37a.39.39,0,1,1,.49-.6Z"/><path class="cls-1" d="M11.69,11a1,1,0,0,0,.2-.54.34.34,0,0,0,0-.09,1,1,0,0,0-.25-.67l-.1-.09a1.16,1.16,0,0,0,.08-.32h0a.54.54,0,0,1,0-.08,1,1,0,0,0-.25-.65.92.92,0,0,0-.62-.3H8.46a6.68,6.68,0,0,0,.38-.88V7.31a3.51,3.51,0,0,0,.23-1.07c0-.49-.18-.87-.77-.87a1,1,0,0,0-.58.18A1.11,1.11,0,0,0,7.39,6h0A5.48,5.48,0,0,1,5.24,8.61H3.15c-.16,0-.3.16-.43.44A5,5,0,0,0,2.4,11a5,5,0,0,0,.32,1.94c.13.28.27.44.43.44H5.29l.55.28a2.65,2.65,0,0,0,.42.18,2.22,2.22,0,0,0,.41.1l.14,0H10.3a1.25,1.25,0,0,0,.78-.27,1.06,1.06,0,0,0,.4-.71v0a1.38,1.38,0,0,0,0-.41l.12-.1a1.05,1.05,0,0,0,.35-.7s0-.08,0-.1A.93.93,0,0,0,11.69,11ZM4.56,12.13a2.51,2.51,0,0,0,0-.27v0l0,.29Zm6.49-.26a.33.33,0,0,1-.21.09h0a.38.38,0,0,0-.38.33.4.4,0,0,0,.24.42.58.58,0,0,1,0,.15v0a.29.29,0,0,1-.1.19.51.51,0,0,1-.3.1H6.79a1.37,1.37,0,0,1-.29-.07A2,2,0,0,1,6.19,13l-1.41-.72A6.76,6.76,0,0,1,4.67,11v-.21l.16-1.12A5.76,5.76,0,0,0,8.09,6.33h0a.27.27,0,0,0,0-.12s0,0,.08,0a.21.21,0,0,1,.12,0s0,0,0,.09a2.83,2.83,0,0,1-.19.83v0s0,0,0,0a7.82,7.82,0,0,1-.45,1h0a.33.33,0,0,0,0,.15.18.18,0,0,0,0,.06h0a.68.68,0,0,0,.18.47A.72.72,0,0,0,8.23,9H10.7a.17.17,0,0,1,.11.06.17.17,0,0,1,0,.12v0a.31.31,0,0,1,0,.12l-.08.09a.36.36,0,0,0-.2.29h0a.36.36,0,0,0,.08.3.38.38,0,0,0,.29.14h0a.21.21,0,0,1,.13.07.2.2,0,0,1,0,.14v0a.37.37,0,0,1-.08.18.36.36,0,0,1-.16.11.39.39,0,0,0-.31.38.41.41,0,0,0,.08.24l0,0a.4.4,0,0,0,.26.1h0a.18.18,0,0,1,.13.06.19.19,0,0,1,.05.13v0A.31.31,0,0,1,11.05,11.87Z"/></g></g></svg>