<svg xmlns="http://www.w3.org/2000/svg" viewBox="0 0 43.91 38.92"><defs><style></style></defs><g id="Capa_2" data-name="Capa 2"><g id="Capa_1-2" data-name="Capa 1"><path class="cls-1" d="M14.52,12.51A6.26,6.26,0,1,0,8.27,6.26a6.27,6.27,0,0,0,6.25,6.25"/><path class="cls-1" d="M29.91,12.51a6.26,6.26,0,1,0-6.26-6.25,6.26,6.26,0,0,0,6.26,6.25"/><path class="cls-1" d="M37.66,13.2a6.26,6.26,0,1,0,6.25,6.26,6.27,6.27,0,0,0-6.25-6.26"/><path class="cls-1" d="M29.5,26.4a6.26,6.26,0,1,0,6.26,6.26A6.27,6.27,0,0,0,29.5,26.4"/><path class="cls-1" d="M14.52,26.4a6.26,6.26,0,1,0,6.26,6.26,6.27,6.27,0,0,0-6.26-6.26"/><path class="cls-1" d="M12.51,19.46a6.26,6.26,0,1,0-6.26,6.25,6.27,6.27,0,0,0,6.26-6.25"/><path class="cls-1" d="M28.32,19.46a6.26,6.26,0,1,0-6.25,6.25,6.26,6.26,0,0,0,6.25-6.25"/></g></g></svg>