<svg xmlns="http://www.w3.org/2000/svg" viewBox="0 0 1209.44 919.63"><defs><style>.cls-1{fill:none;stroke:#d4da25;stroke-miterlimit:22.93;stroke-width:0.72px;}</style></defs><g id="Capa_2" data-name="Capa 2"><g id="Capa_1-2" data-name="Capa 1"><path class="cls-1" d="M16,301.56C115.5,32.62,243.62,114.15,445.85,215.8s401.64,262,567.87,249.28,203-88.29,135.63-207.15C1032.88,52.51,902.75-13.9,692.56,156.51,484.43,325.24,609.93,417,630.09,676.39c17.5,225.21-141.54,339.28-286.6,140.22S184.32,536.62,271.15,544s242.47,39.17,218.12-103.77S367.84,116.55,413,62.58c152.47-182.12,517.05,82.74,631.4,192.85S1288,468,1148.15,666.26C1008.78,863.89-146.44,740.43,16,301.56Z"/></g></g></svg>