<svg xmlns="http://www.w3.org/2000/svg" viewBox="0 0 933.11 585.34"><defs><style>.cls-1{fill:none;stroke:#d4da25;stroke-miterlimit:22.93;stroke-width:0.72px;}</style></defs><g id="Capa_2" data-name="Capa 2"><g id="Capa_1-2" data-name="Capa 1"><path class="cls-1" d="M729.76,254,568.91,364.1C546.59,379.38,542.06,411,560,431.21c51.47,58.12,265.12,62.9,154-53.57-151-158.16,17-60.95,82.77-52.39,85.47,11.13,175.79-85.12,117.53,28.59-42,82.07-82.58,44.32-105.5,19.62a63.65,63.65,0,0,0-72.38-14.71c-25.8,11.51-45.86,49-22.24,79.79,45.53,59.3,73.29,65.47,26.29,110.12C599.16,682.82-17.81,417.24,300.12,208.78,542.53,49.84,634.42-41.38,752.24,19.25c165.25,85,78.22,357.61-382.23,73.06C87.3-82.4-120.23,320,79.89,453.37c379.48,253,905.81,7.11,802.71-166.67C851.11,233.62,780.68,219.09,729.76,254Z"/></g></g></svg>