<svg xmlns="http://www.w3.org/2000/svg" viewBox="0 0 33.08 77.52"><defs><style>.cls-1{fill:#d4da25;}</style></defs><g id="Capa_2" data-name="Capa 2"><g id="Capa_1-2" data-name="Capa 1"><path class="cls-1" d="M33.08,70.2,12.43,77.52l-.16-.45,20.65-7.32Zm0-22.75L8,55.94l25.11,8.53-.16.45-26.42-9L32.93,47ZM.1,77.3v-.24l28.84-9.89L0,57.67V54.05l28.94-9.49L.1,34.66V30l33,11.7-.16.44L.58,30.65v3.68L30.43,44.57.47,54.4v2.93l30,9.83L.41,77.45l0-.15Z"/><polygon class="cls-1" points="0.1 25.96 0.1 0.25 4.2 0.25 4.2 21.74 15.75 21.74 15.75 2.52 19.85 2.52 19.85 21.74 31.71 21.74 31.71 0 33 0 33 0.47 32.19 0.47 32.19 22.22 19.38 22.22 19.38 2.99 16.23 2.99 16.23 22.22 3.72 22.22 3.72 0.73 0.57 0.73 0.57 25.72 33 25.72 33 26.2 0.34 26.2 0.34 25.96 0.1 25.96"/></g></g></svg>